<?xml version="1.0" standalone="no"?><!DOCTYPE svg PUBLIC "-//W3C//DTD SVG 1.1//EN" "http://www.w3.org/Graphics/SVG/1.1/DTD/svg11.dtd"><svg t="1658805987883" class="icon" viewBox="0 0 1024 1024" version="1.1" xmlns="http://www.w3.org/2000/svg" p-id="19937" xmlns:xlink="http://www.w3.org/1999/xlink" width="200" height="200"><defs><style type="text/css"></style></defs><path d="M542.272 64a454.4 454.4 0 1 1-0.704 908.8c-140.608-3.2-261.76-62.912-361.6-177.664a32 32 0 0 1 48.256-42.048c88.32 101.504 192.64 152.96 314.048 155.712a390.4 390.4 0 1 0-388.992-423.872l73.344-73.216a32 32 0 0 1 48.96 40.832l-3.712 4.416L163.2 565.568a32 32 0 0 1-40.832 3.712l-4.48-3.712L9.408 456.96a32 32 0 0 1 40.832-48.96l4.48 3.712 38.336 38.4A454.528 454.528 0 0 1 542.272 64z m0 224.192a32 32 0 0 1 32 32v178.752l162.368 156.352a32 32 0 0 1-44.416 46.08l-172.16-165.76a32 32 0 0 1-9.792-23.04V320.192a32 32 0 0 1 32-32z" p-id="19938"></path></svg>