<?xml version="1.0" standalone="no"?><!DOCTYPE svg PUBLIC "-//W3C//DTD SVG 1.1//EN" "http://www.w3.org/Graphics/SVG/1.1/DTD/svg11.dtd"><svg t="1658805630192" class="icon" viewBox="0 0 1024 1024" version="1.1" xmlns="http://www.w3.org/2000/svg" p-id="4209" xmlns:xlink="http://www.w3.org/1999/xlink" width="200" height="200"><defs><style type="text/css"></style></defs><path d="M648.098909 289.854061a372.363636 372.363636 0 0 0-142.894545-27.958303c-205.420606 0.713697-371.060364 170.449455-371.060364 376.738909v88.715636h744.727273v-93.090909A372.363636 372.363636 0 0 0 648.098909 289.82303zM504.987152 199.835152a434.424242 434.424242 0 0 1 435.975757 434.424242v93.090909a62.060606 62.060606 0 0 1-62.060606 62.060606h-744.727273a62.060606 62.060606 0 0 1-62.060606-62.060606V638.603636c0-239.616 192.387879-437.961697 432.872728-438.799515z" fill="#303133" p-id="4210"></path><path d="M506.507636 199.835152a31.030303 31.030303 0 0 1 31.030303 31.030303v124.121212a31.030303 31.030303 0 1 1-62.060606 0v-124.121212a31.030303 31.030303 0 0 1 31.030303-31.030303zM86.884848 521.805576a31.030303 31.030303 0 0 1 38.012122-21.938424l119.901091 32.116363a31.030303 31.030303 0 0 1-16.073697 59.950546l-119.870061-32.116364a31.030303 31.030303 0 0 1-21.969455-38.012121zM926.130424 521.805576a31.030303 31.030303 0 0 1-21.938424 38.012121l-119.901091 32.116364a31.030303 31.030303 0 0 1-16.042667-59.919516l119.870061-32.147393a31.030303 31.030303 0 0 1 38.012121 21.938424zM695.389091 388.096a31.030303 31.030303 0 0 1 5.771636 43.504485l-265.27806 345.677576a31.030303 31.030303 0 1 1-49.214061-37.794909l265.24703-345.677576a31.030303 31.030303 0 0 1 43.504485-5.709576z" fill="#303133" p-id="4211"></path></svg>